<?xml version="1.0" encoding="UTF-8"?>
<svg xmlns="http://www.w3.org/2000/svg" viewBox="0 0 512 512" width="512" height="512">
  <defs>
    <linearGradient id="glowrecording" x1="0%" y1="0%" x2="100%" y2="100%">
      <stop offset="0%" stop-color="#f97316" stop-opacity="0.3"/>
      <stop offset="100%" stop-color="#fb923c" stop-opacity="0.1"/>
    </linearGradient>
  </defs>
  <circle cx="256" cy="256" r="244" fill="#0f111c" stroke="#f97316" stroke-width="3" opacity="0.9"/>
  <circle cx="256" cy="256" r="244" fill="url(#glowrecording)" opacity="0.3"/>
  <g fill="none" stroke="#ea580c" stroke-width="2.5" opacity="0.8">
    <ellipse cx="256" cy="256" rx="220" ry="180" transform="rotate(25 256 256)"/>
    <ellipse cx="256" cy="256" rx="200" ry="190" transform="rotate(-15 256 256)"/>
    <ellipse cx="256" cy="256" rx="210" ry="170" transform="rotate(45 256 256)"/>
  </g>
  <circle cx="356" cy="166" r="4" fill="#fb923c"/>
  <circle cx="446" cy="256" r="4" fill="#fb923c"/>
  <circle cx="356" cy="346" r="4" fill="#fb923c"/>
  <rect x="228" y="168" width="56" height="90" rx="28" fill="white"/>
  <g stroke="#c8d2e6" stroke-width="1.5" opacity="0.5">
    <line x1="240" y1="192" x2="272" y2="192"/>
    <line x1="240" y1="204" x2="272" y2="204"/>
    <line x1="240" y1="216" x2="272" y2="216"/>
    <line x1="240" y1="228" x2="272" y2="228"/>
  </g>
  <path d="M 212 250 A 44 26 0 0 0 300 250" fill="none" stroke="white" stroke-width="5" stroke-linecap="round"/>
  <line x1="256" y1="276" x2="256" y2="294" stroke="white" stroke-width="5" stroke-linecap="round"/>
  <line x1="238" y1="294" x2="274" y2="294" stroke="white" stroke-width="5" stroke-linecap="round"/>
</svg>