<?xml version="1.0" encoding="UTF-8"?>
<svg xmlns="http://www.w3.org/2000/svg" viewBox="0 0 512 512" width="512" height="512">
  <defs>
    <linearGradient id="glow" x1="0%" y1="0%" x2="100%" y2="100%">
      <stop offset="0%" stop-color="#00a8e8" stop-opacity="0.3"/>
      <stop offset="100%" stop-color="#00d2ff" stop-opacity="0.1"/>
    </linearGradient>
    <filter id="blur" x="-20%" y="-20%" width="140%" height="140%">
      <feGaussianBlur stdDeviation="8"/>
    </filter>
  </defs>
  <!-- Background circle -->
  <circle cx="256" cy="256" r="244" fill="#0f111c" stroke="#00a8e8" stroke-width="3" opacity="0.9"/>
  <circle cx="256" cy="256" r="244" fill="url(#glow)" opacity="0.3"/>
  <!-- Orbital rings -->
  <g fill="none" stroke="#00b4ff" stroke-width="2.5" opacity="0.8">
    <ellipse cx="256" cy="256" rx="220" ry="180" transform="rotate(25 256 256)"/>
    <ellipse cx="256" cy="256" rx="200" ry="190" transform="rotate(-15 256 256)"/>
    <ellipse cx="256" cy="256" rx="210" ry="170" transform="rotate(45 256 256)"/>
  </g>
  <!-- Highlight dots -->
  <circle cx="356" cy="166" r="4" fill="#00d2ff"/>
  <circle cx="446" cy="256" r="4" fill="#00d2ff"/>
  <circle cx="356" cy="346" r="4" fill="#00d2ff"/>
  <!-- Microphone body -->
  <rect x="228" y="168" width="56" height="90" rx="28" fill="white"/>
  <!-- Grill lines -->
  <g stroke="#c8d2e6" stroke-width="1.5" opacity="0.5">
    <line x1="240" y1="192" x2="272" y2="192"/>
    <line x1="240" y1="204" x2="272" y2="204"/>
    <line x1="240" y1="216" x2="272" y2="216"/>
    <line x1="240" y1="228" x2="272" y2="228"/>
  </g>
  <!-- Stand arc -->
  <path d="M 212 250 A 44 26 0 0 0 300 250" fill="none" stroke="white" stroke-width="5" stroke-linecap="round"/>
  <!-- Stand vertical -->
  <line x1="256" y1="276" x2="256" y2="294" stroke="white" stroke-width="5" stroke-linecap="round"/>
  <!-- Stand base -->
  <line x1="238" y1="294" x2="274" y2="294" stroke="white" stroke-width="5" stroke-linecap="round"/>
</svg>